<svg xmlns="http://www.w3.org/2000/svg" viewBox="0 0 128 128">
  <defs>
    <linearGradient id="g" x1="0%" y1="0%" x2="100%" y2="100%">
      <stop offset="0%" stop-color="#6366f1"/>
      <stop offset="100%" stop-color="#8b5cf6"/>
    </linearGradient>
  </defs>
  <rect width="128" height="128" rx="28" fill="url(#g)"/>
  <!-- "2" -->
  <path d="M18 88V82l20-22c3-3.5 5-6 5-9.5 0-4.5-3-7-7-7-4.5 0-7.5 3-7.5 7.5h-9C19.5 42 27 36 36 36c10 0 16.5 6.5 16.5 15.5 0 6-3 10.5-8 16L32 81h21v7H18z" fill="white"/>
  <!-- "1" -->
  <path d="M62 88V43l-9 6v-8l10-7h8v54h-9z" fill="white"/>
  <!-- "0" -->
  <path d="M95 89c-10 0-16-8-16-22.5S85 44 95 44s16 8 16 22.5S105 89 95 89zm0-8c5 0 7-5 7-14.5S100 52 95 52s-7 5-7 14.5S90 81 95 81z" fill="white"/>
</svg>
